<svg id="Capa_1" enable-background="new 0 0 497 497" height="512" viewBox="0 0 497 497" width="512" xmlns="http://www.w3.org/2000/svg"><g><path d="m348.59 439.986-24.071-47.866-73.53-10-78.014 10-24.071 47.866 101.745 10z" fill="#d0cdd3"/><path d="m35 392.12c-19.25 0-35-15.784-35-35.076v-309.968c0-19.292 15.75-35.076 35-35.076h427c19.25 0 35 15.784 35 35.076v309.969c0 19.292-15.75 35.076-35 35.076h-427z" fill="#e0dee2"/><path d="m49 392.12h-14c-19.25 0-35-15.78-35-35.08v-309.96c0-19.3 15.75-35.08 35-35.08h14c-19.25 0-35 15.78-35 35.08v309.96c0 19.3 15.75 35.08 35 35.08z" fill="#d0cdd3"/><path d="m447.56 42.486c10.692 0 19.44 8.767 19.44 19.482v279.724c0 10.715-8.748 19.482-19.44 19.482h-400.12c-10.692 0-19.44-8.767-19.44-19.482v-279.724c0-10.715 8.748-19.482 19.44-19.482z" fill="#f9f8f8"/><path d="m67.44 361.17h-20c-10.69 0-19.44-8.76-19.44-19.48v-279.72c0-10.72 8.75-19.48 19.44-19.48h20c-10.69 0-19.44 8.76-19.44 19.48v279.72c0 10.72 8.75 19.48 19.44 19.48z" fill="#ede8e5"/><path d="m378.987 485h-259.477c-12.401 0-22.455-10.076-22.455-22.507s10.054-22.507 22.455-22.507h259.478c12.401 0 22.455 10.076 22.455 22.507s-10.054 22.507-22.456 22.507z" fill="#e0dee2"/><path d="m139.51 485h-20c-12.4 0-22.46-10.08-22.46-22.51s10.06-22.5 22.46-22.5h20c-12.4 0-22.46 10.07-22.46 22.5s10.06 22.51 22.46 22.51z" fill="#d0cdd3"/><path d="m177.655 99.668c1.232 8.18-4.384 15.835-12.591 17.068l-15.808 2.387 69.569 48.244c6.804 4.718 8.497 14.07 3.778 20.874-4.724 6.812-14.07 8.497-20.874 3.778l-69.569-48.244 3.305 15.642c1.718 8.119-3.482 16.069-11.577 17.783-8.106 1.704-16.064-3.473-17.769-11.58l-11.024-52.172c-2.21-8.352 4.037-17.45 12.626-18.382l52.866-7.988c8.184-1.238 15.828 4.392 17.068 12.59z" fill="#f7f06d"/><path d="m132.317 126.041 89.993 62.589c-4.79 6.48-13.91 8.02-20.58 3.39l-69.51-48.21-3.01-15.752c-.336-1.761 1.635-3.041 3.107-2.017z" fill="#ed5"/><path d="m132.22 143.81c.01.1.01.2.01.3l-.07-.34z" fill="#f7f06d"/><path d="m128.29 175.51c-1.33.78-2.81 1.35-4.4 1.69-8.11 1.7-16.07-3.47-17.77-11.58l-11.02-52.17c-2.08-7.86 3.33-16.39 11.14-18.13l14.88 70.3c.91 4.34 3.61 7.84 7.17 9.89z" fill="#ed5"/><path d="m317.345 303.992c-1.232-8.18 4.384-15.835 12.591-17.068l15.808-2.387-69.569-48.244c-6.804-4.718-8.497-14.07-3.778-20.874 4.724-6.812 14.07-8.497 20.874-3.778l69.569 48.244-3.305-15.642c-1.718-8.119 3.482-16.069 11.577-17.783 8.106-1.704 16.064 3.474 17.769 11.58l11.024 52.172c2.21 8.352-4.037 17.45-12.626 18.382l-52.866 7.988c-8.184 1.237-15.828-4.392-17.068-12.59z" fill="#f7f06d"/><path d="m345.74 284.54-69.56-48.25c-6.59-4.56-8.38-13.46-4.23-20.19l91.243 62.517c1.508 1.033.954 3.381-.857 3.631z" fill="#ed5"/><path d="m400.35 293.82c-.07 7.18-5.71 13.98-13.07 14.77l-52.87 7.99c-8.18 1.24-15.83-4.39-17.06-12.59-.47-3.1.05-6.12 1.31-8.75 2.76 5.8 9.08 9.35 15.75 8.34z" fill="#ed5"/><path d="m345.74 284.54-.94.14c.29-.07.59-.12.9-.17z" fill="#ead246"/></g></svg>